REM MD5 1076f0ff57d16c0282057dc04c9a2904
FILE "Rampage - World Tour (Europe).bin" BINARY
  TRACK 01 MODE2/2352
    INDEX 01 00:00:00
  TRACK 02 AUDIO
    INDEX 00 25:07:55
    INDEX 01 25:09:55
  TRACK 03 AUDIO
    INDEX 00 28:01:15
    INDEX 01 28:03:15
REM LEADOUT 30:54:50
